<svg xmlns="http://www.w3.org/2000/svg" viewBox="0 0 24 24" fill="#000000"><g fill="none" stroke="#000000" stroke-linecap="round" stroke-linejoin="round"><path d="M12 22.5c5.799 0 10.5-4.701 10.5-10.5S17.799 1.5 12 1.5S1.5 6.201 1.5 12S6.201 22.5 12 22.5"/><path d="M19.514 16.337a3.652 3.652 0 0 0-5.222-4.84a3.653 3.653 0 0 0-.913 5.123a.466.466 0 0 1 0 .584A5.6 5.6 0 0 1 12 18.391a5.48 5.48 0 0 1-7.213-1.597a3.653 3.653 0 0 0 6.528-2.52a3.65 3.65 0 0 0-3.972-3.36a.45.45 0 0 1-.493-.293a5.3 5.3 0 0 1-.328-1.817a5.48 5.48 0 0 1 5.104-5.478a3.653 3.653 0 1 0 1.954 6.921a3.58 3.58 0 0 0 1.734-1.762a.475.475 0 0 1 .502-.283c.588.118 1.15.338 1.662.648a5.477 5.477 0 0 1 2.036 7.487"/></g></svg>
